<svg xmlns="http://www.w3.org/2000/svg" xmlns:xlink="http://www.w3.org/1999/xlink" width="450" zoomAndPan="magnify" viewBox="0 0 337.5 335.999987" height="448" preserveAspectRatio="xMidYMid meet" version="1.0"><defs><clipPath id="5b8f7cc3d5"><path d="M 1.988281 1.113281 L 337 1.113281 L 337 335.75 L 1.988281 335.75 Z M 1.988281 1.113281 " clip-rule="nonzero"/></clipPath><clipPath id="346d9a11c5"><path d="M 169.5 1.113281 C 76.984375 1.113281 1.988281 76.109375 1.988281 168.625 C 1.988281 261.136719 76.984375 336.136719 169.5 336.136719 C 262.015625 336.136719 337.011719 261.136719 337.011719 168.625 C 337.011719 76.109375 262.015625 1.113281 169.5 1.113281 Z M 169.5 1.113281 " clip-rule="nonzero"/></clipPath><clipPath id="c3ca50353e"><path d="M 1.988281 1.113281 L 337 1.113281 L 337 335.75 L 1.988281 335.75 Z M 1.988281 1.113281 " clip-rule="nonzero"/></clipPath><clipPath id="dde7afcce4"><path d="M 169.613281 1.113281 C 77.039062 1.113281 1.988281 76.160156 1.988281 168.738281 C 1.988281 261.316406 77.039062 336.363281 169.613281 336.363281 C 262.191406 336.363281 337.238281 261.316406 337.238281 168.738281 C 337.238281 76.160156 262.191406 1.113281 169.613281 1.113281 Z M 169.613281 1.113281 " clip-rule="nonzero"/></clipPath><clipPath id="e6bceab523"><path d="M 0.472656 0.359375 L 317.722656 0.359375 L 317.722656 335.75 L 0.472656 335.75 Z M 0.472656 0.359375 " clip-rule="nonzero"/></clipPath></defs><g clip-path="url(#5b8f7cc3d5)"><g clip-path="url(#346d9a11c5)"><path fill="#ffffff" d="M 1.988281 1.113281 L 337.011719 1.113281 L 337.011719 336.136719 L 1.988281 336.136719 Z M 1.988281 1.113281 " fill-opacity="1" fill-rule="nonzero"/></g></g><g clip-path="url(#c3ca50353e)"><g clip-path="url(#dde7afcce4)"><path stroke-linecap="butt" transform="matrix(0.750525, 0, 0, 0.750525, 1.989039, 1.113779)" fill="none" stroke-linejoin="miter" d="M 223.342743 -0.000663634 C 99.996742 -0.000663634 -0.0010091 99.991883 -0.0010091 223.343089 C -0.0010091 346.694294 99.996742 446.686841 223.342743 446.686841 C 346.693949 446.686841 446.686495 346.694294 446.686495 223.343089 C 446.686495 99.991883 346.693949 -0.000663634 223.342743 -0.000663634 Z M 223.342743 -0.000663634 " stroke="#00adef" stroke-width="4" stroke-opacity="1" stroke-miterlimit="4"/></g></g><g clip-path="url(#e6bceab523)"><path fill="#00adef" d="M 113.003906 274.554688 L 147.386719 238.585938 C 159.710938 242.179688 171.449219 246.691406 182.5625 251.835938 L 176.339844 258.710938 C 208.703125 274.859375 234.628906 293.390625 255.375 312.34375 C 261.1875 308.84375 266.769531 305 272.089844 300.84375 C 240.859375 272.082031 178.578125 225.699219 100.371094 224.082031 L 131.3125 191.710938 C 144.105469 194.753906 156.277344 198.839844 167.820312 203.695312 L 163.707031 208.238281 C 216.4375 234.554688 252.082031 267.183594 276.054688 297.65625 C 280.019531 294.363281 283.832031 290.898438 287.480469 287.257812 C 255.109375 248.613281 194.886719 192.488281 111.746094 181.773438 L 247.3125 58.707031 C 247.3125 58.707031 282.347656 63.386719 317.511719 90.152344 C 289.367188 36.769531 233.316406 0.371094 168.75 0.371094 C 75.925781 0.371094 0.683594 75.585938 0.683594 168.363281 C 0.683594 261.140625 75.925781 336.351562 168.75 336.351562 C 197.042969 336.351562 223.703125 329.355469 247.097656 317.007812 C 213.574219 296.351562 162.53125 271.734375 113.003906 274.554688 " fill-opacity="1" fill-rule="nonzero"/></g></svg>