<svg xmlns="http://www.w3.org/2000/svg" xmlns:xlink="http://www.w3.org/1999/xlink" width="422" zoomAndPan="magnify" viewBox="0 0 316.5 79.499998" height="106" preserveAspectRatio="xMidYMid meet" version="1.0"><defs><g/><clipPath id="21dc8a2558"><path d="M 2.03125 11.800781 L 65.722656 11.800781 L 65.722656 75.492188 L 2.03125 75.492188 Z M 2.03125 11.800781 " clip-rule="nonzero"/></clipPath><clipPath id="bd1220f1f0"><path d="M 33.875 11.800781 C 16.289062 11.800781 2.03125 26.058594 2.03125 43.648438 C 2.03125 61.234375 16.289062 75.492188 33.875 75.492188 C 51.464844 75.492188 65.722656 61.234375 65.722656 43.648438 C 65.722656 26.058594 51.464844 11.800781 33.875 11.800781 Z M 33.875 11.800781 " clip-rule="nonzero"/></clipPath><clipPath id="eeaad3331c"><path d="M 2.03125 11.800781 L 65.480469 11.800781 L 65.480469 75.253906 L 2.03125 75.253906 Z M 2.03125 11.800781 " clip-rule="nonzero"/></clipPath><clipPath id="d2d507e2e8"><path d="M 33.757812 11.800781 C 16.234375 11.800781 2.03125 26.003906 2.03125 43.527344 C 2.03125 61.050781 16.234375 75.253906 33.757812 75.253906 C 51.277344 75.253906 65.480469 61.050781 65.480469 43.527344 C 65.480469 26.003906 51.277344 11.800781 33.757812 11.800781 Z M 33.757812 11.800781 " clip-rule="nonzero"/></clipPath><clipPath id="f302a5249f"><path d="M 1.046875 11.660156 L 61.515625 11.660156 L 61.515625 75.855469 L 1.046875 75.855469 Z M 1.046875 11.660156 " clip-rule="nonzero"/></clipPath></defs><g fill="#07060e" fill-opacity="1"><g transform="translate(72.369125, 48.300996)"><g><path d="M 19.984375 -13.257812 C 23.089844 -14.648438 24.960938 -17.476562 24.960938 -21.496094 C 24.960938 -27.667969 21.058594 -30.375 15.367188 -30.375 L 2.828125 -30.375 L 2.828125 0 L 7.882812 0 L 7.882812 -12.382812 L 15.128906 -12.382812 L 20.144531 0 L 25.597656 0 Z M 7.882812 -25.835938 L 14.691406 -25.835938 C 18.074219 -25.835938 19.984375 -24.246094 19.984375 -21.339844 C 19.984375 -18.390625 18.113281 -16.800781 14.691406 -16.800781 L 7.882812 -16.800781 Z M 7.882812 -25.835938 "/></g></g></g><g fill="#07060e" fill-opacity="1"><g transform="translate(104.057417, 48.300996)"><g><path d="M 12.777344 0.4375 C 18.632812 0.4375 22.015625 -3.105469 23.328125 -7.363281 L 18.472656 -7.363281 C 17.675781 -5.375 15.726562 -3.664062 12.898438 -3.664062 C 10.351562 -3.664062 8.242188 -5.175781 7.207031 -7.683594 C 6.808594 -8.359375 6.570312 -9.316406 6.449219 -10.152344 L 23.726562 -10.152344 L 23.726562 -11.347656 C 23.726562 -19.070312 18.351562 -22.652344 12.660156 -22.652344 C 5.335938 -22.652344 1.671875 -16.878906 1.671875 -11.027344 C 1.671875 -4.457031 6.128906 0.4375 12.777344 0.4375 Z M 6.726562 -13.855469 C 6.847656 -14.449219 7.046875 -15.246094 7.523438 -15.964844 C 8.640625 -17.835938 10.511719 -18.832031 12.820312 -18.832031 C 15.046875 -18.832031 17.039062 -17.875 18.113281 -15.964844 C 18.550781 -15.289062 18.75 -14.492188 18.832031 -13.855469 Z M 6.726562 -13.855469 "/></g></g></g><g fill="#07060e" fill-opacity="1"><g transform="translate(134.073739, 48.300996)"><g><path d="M 8.917969 0.4375 C 10.90625 0.4375 12.660156 0.121094 14.054688 -0.796875 C 14.929688 -1.355469 15.683594 -2.148438 16.28125 -3.183594 L 16.28125 0 L 20.980469 0 L 20.980469 -12.0625 C 20.980469 -14.609375 20.980469 -18.113281 18.511719 -20.421875 C 16.839844 -21.933594 14.410156 -22.652344 11.824219 -22.652344 C 7.484375 -22.652344 3.304688 -20.261719 2.507812 -15.246094 L 7.207031 -15.246094 C 7.644531 -17.515625 9.554688 -18.871094 11.785156 -18.871094 C 13.21875 -18.871094 14.332031 -18.433594 15.128906 -17.636719 C 15.882812 -16.839844 16.28125 -15.726562 16.320312 -14.210938 L 9.277344 -12.898438 C 7.246094 -12.5 5.453125 -11.941406 4.101562 -10.949219 C 2.585938 -9.832031 1.671875 -8.242188 1.671875 -6.050781 C 1.671875 -1.910156 4.65625 0.4375 8.917969 0.4375 Z M 9.953125 -3.382812 C 7.84375 -3.382812 6.371094 -4.378906 6.371094 -6.171875 C 6.371094 -7.007812 6.648438 -7.644531 7.164062 -8.160156 C 7.84375 -8.796875 8.835938 -9.195312 10.429688 -9.515625 L 16.363281 -10.667969 C 16.363281 -7.484375 15.644531 -5.375 13.019531 -4.0625 C 12.101562 -3.621094 11.066406 -3.382812 9.953125 -3.382812 Z M 9.953125 -3.382812 "/></g></g></g><g fill="#07060e" fill-opacity="1"><g transform="translate(162.059813, 48.300996)"><g><path d="M 11.546875 0.4375 C 14.332031 0.4375 16.242188 -0.398438 18.191406 -3.027344 L 18.191406 0 L 22.890625 0 L 22.890625 -30.375 L 18.191406 -30.375 L 18.191406 -19.226562 C 16.203125 -21.894531 14.253906 -22.652344 11.546875 -22.652344 C 5.691406 -22.652344 1.75 -17.914062 1.75 -11.105469 C 1.75 -4.300781 5.691406 0.4375 11.546875 0.4375 Z M 12.5 -3.621094 C 8.796875 -3.621094 6.488281 -6.808594 6.488281 -11.105469 C 6.488281 -15.40625 8.796875 -18.589844 12.5 -18.589844 C 16.125 -18.589844 18.671875 -15.484375 18.671875 -11.105469 C 18.671875 -6.726562 16.125 -3.621094 12.5 -3.621094 Z M 12.5 -3.621094 "/></g></g></g><g fill="#07060e" fill-opacity="1"><g transform="translate(192.195565, 48.300996)"><g><path d="M 22.929688 0 L 22.929688 -4.539062 L 7.882812 -4.539062 L 7.882812 -12.976562 L 21.257812 -12.976562 L 21.257812 -17.476562 L 7.882812 -17.476562 L 7.882812 -25.835938 L 22.929688 -25.835938 L 22.929688 -30.375 L 2.828125 -30.375 L 2.828125 0 Z M 22.929688 0 "/></g></g></g><g fill="#07060e" fill-opacity="1"><g transform="translate(221.495325, 48.300996)"><g><path d="M 8.917969 0.4375 C 10.90625 0.4375 12.660156 0.121094 14.054688 -0.796875 C 14.929688 -1.355469 15.683594 -2.148438 16.28125 -3.183594 L 16.28125 0 L 20.980469 0 L 20.980469 -12.0625 C 20.980469 -14.609375 20.980469 -18.113281 18.511719 -20.421875 C 16.839844 -21.933594 14.410156 -22.652344 11.824219 -22.652344 C 7.484375 -22.652344 3.304688 -20.261719 2.507812 -15.246094 L 7.207031 -15.246094 C 7.644531 -17.515625 9.554688 -18.871094 11.785156 -18.871094 C 13.21875 -18.871094 14.332031 -18.433594 15.128906 -17.636719 C 15.882812 -16.839844 16.28125 -15.726562 16.320312 -14.210938 L 9.277344 -12.898438 C 7.246094 -12.5 5.453125 -11.941406 4.101562 -10.949219 C 2.585938 -9.832031 1.671875 -8.242188 1.671875 -6.050781 C 1.671875 -1.910156 4.65625 0.4375 8.917969 0.4375 Z M 9.953125 -3.382812 C 7.84375 -3.382812 6.371094 -4.378906 6.371094 -6.171875 C 6.371094 -7.007812 6.648438 -7.644531 7.164062 -8.160156 C 7.84375 -8.796875 8.835938 -9.195312 10.429688 -9.515625 L 16.363281 -10.667969 C 16.363281 -7.484375 15.644531 -5.375 13.019531 -4.0625 C 12.101562 -3.621094 11.066406 -3.382812 9.953125 -3.382812 Z M 9.953125 -3.382812 "/></g></g></g><g fill="#07060e" fill-opacity="1"><g transform="translate(249.481404, 48.300996)"><g><path d="M 11.941406 0.4375 C 17.597656 0.4375 20.902344 -2.386719 20.902344 -6.609375 C 20.902344 -11.664062 16.28125 -12.578125 12.339844 -13.296875 C 9.476562 -13.855469 6.96875 -14.332031 6.96875 -16.363281 C 6.96875 -17.914062 8.441406 -18.871094 10.828125 -18.871094 C 13.257812 -18.871094 15.246094 -17.796875 15.925781 -15.289062 L 20.34375 -15.289062 C 19.546875 -19.945312 15.882812 -22.652344 10.828125 -22.652344 C 6.25 -22.652344 2.386719 -20.582031 2.386719 -16.125 C 2.386719 -11.265625 6.847656 -10.390625 10.667969 -9.632812 C 13.613281 -9.035156 16.242188 -8.480469 16.242188 -6.210938 C 16.242188 -4.378906 14.449219 -3.382812 11.941406 -3.382812 C 8.835938 -3.382812 6.847656 -4.855469 6.210938 -7.363281 L 1.472656 -7.363281 C 2.230469 -2.070312 6.6875 0.4375 11.941406 0.4375 Z M 11.941406 0.4375 "/></g></g></g><g fill="#07060e" fill-opacity="1"><g transform="translate(276.790727, 48.300996)"><g><path d="M 12.777344 0.4375 C 18.632812 0.4375 22.015625 -3.105469 23.328125 -7.363281 L 18.472656 -7.363281 C 17.675781 -5.375 15.726562 -3.664062 12.898438 -3.664062 C 10.351562 -3.664062 8.242188 -5.175781 7.207031 -7.683594 C 6.808594 -8.359375 6.570312 -9.316406 6.449219 -10.152344 L 23.726562 -10.152344 L 23.726562 -11.347656 C 23.726562 -19.070312 18.351562 -22.652344 12.660156 -22.652344 C 5.335938 -22.652344 1.671875 -16.878906 1.671875 -11.027344 C 1.671875 -4.457031 6.128906 0.4375 12.777344 0.4375 Z M 6.726562 -13.855469 C 6.847656 -14.449219 7.046875 -15.246094 7.523438 -15.964844 C 8.640625 -17.835938 10.511719 -18.832031 12.820312 -18.832031 C 15.046875 -18.832031 17.039062 -17.875 18.113281 -15.964844 C 18.550781 -15.289062 18.75 -14.492188 18.832031 -13.855469 Z M 6.726562 -13.855469 "/></g></g></g><g fill="#07060e" fill-opacity="1"><g transform="translate(73.351008, 69.392631)"><g><path d="M 10.296875 -10.828125 L 11.453125 -10.828125 C 11.453125 -9.953125 11.273438 -9.265625 10.921875 -8.765625 C 10.578125 -8.265625 9.992188 -7.96875 9.171875 -7.875 L 9.171875 -3.453125 C 9.171875 -2.679688 8.988281 -2.023438 8.625 -1.484375 C 8.257812 -0.941406 7.773438 -0.53125 7.171875 -0.25 C 6.578125 0.03125 5.921875 0.171875 5.203125 0.171875 C 4.484375 0.171875 3.820312 0.03125 3.21875 -0.25 C 2.625 -0.53125 2.144531 -0.941406 1.78125 -1.484375 C 1.414062 -2.023438 1.234375 -2.679688 1.234375 -3.453125 L 1.234375 -10.203125 L 2.46875 -10.203125 L 2.46875 -3.453125 C 2.46875 -2.921875 2.59375 -2.46875 2.84375 -2.09375 C 3.101562 -1.726562 3.4375 -1.453125 3.84375 -1.265625 C 4.257812 -1.078125 4.710938 -0.984375 5.203125 -0.984375 C 5.679688 -0.984375 6.128906 -1.078125 6.546875 -1.265625 C 6.960938 -1.453125 7.296875 -1.726562 7.546875 -2.09375 C 7.804688 -2.46875 7.9375 -2.921875 7.9375 -3.453125 L 7.9375 -10.203125 L 9.171875 -10.203125 L 9.171875 -8.875 C 9.609375 -8.96875 9.90625 -9.175781 10.0625 -9.5 C 10.21875 -9.832031 10.296875 -10.273438 10.296875 -10.828125 Z M 4.65625 -11.234375 L 5.875 -13.546875 L 7.25 -13.546875 L 5.703125 -11.234375 Z M 4.65625 -11.234375 "/></g></g></g><g fill="#07060e" fill-opacity="1"><g transform="translate(85.900209, 69.392631)"><g><path d="M 2.25 -4.609375 L 2.25 0 L 1.078125 0 L 1.078125 -7.65625 L 2.21875 -7.65625 L 2.21875 -6.453125 L 2.3125 -6.453125 C 2.488281 -6.847656 2.757812 -7.160156 3.125 -7.390625 C 3.488281 -7.628906 3.960938 -7.75 4.546875 -7.75 C 5.316406 -7.75 5.941406 -7.507812 6.421875 -7.03125 C 6.898438 -6.5625 7.140625 -5.835938 7.140625 -4.859375 L 7.140625 0 L 5.953125 0 L 5.953125 -4.78125 C 5.953125 -5.382812 5.796875 -5.851562 5.484375 -6.1875 C 5.171875 -6.53125 4.742188 -6.703125 4.203125 -6.703125 C 3.640625 -6.703125 3.171875 -6.519531 2.796875 -6.15625 C 2.429688 -5.789062 2.25 -5.273438 2.25 -4.609375 Z M 2.25 -4.609375 "/></g></g></g><g fill="#07060e" fill-opacity="1"><g transform="translate(94.526181, 69.392631)"><g><path d="M 4.171875 3.03125 C 3.316406 3.03125 2.640625 2.875 2.140625 2.5625 C 1.640625 2.25 1.269531 1.894531 1.03125 1.5 L 1.96875 0.84375 C 2.070312 0.976562 2.207031 1.132812 2.375 1.3125 C 2.539062 1.5 2.765625 1.660156 3.046875 1.796875 C 3.328125 1.929688 3.703125 2 4.171875 2 C 4.785156 2 5.289062 1.847656 5.6875 1.546875 C 6.09375 1.242188 6.296875 0.773438 6.296875 0.140625 L 6.296875 -1.421875 L 6.203125 -1.421875 C 6.109375 -1.273438 5.984375 -1.097656 5.828125 -0.890625 C 5.671875 -0.691406 5.445312 -0.515625 5.15625 -0.359375 C 4.863281 -0.203125 4.46875 -0.125 3.96875 -0.125 C 3.351562 -0.125 2.796875 -0.269531 2.296875 -0.5625 C 1.804688 -0.851562 1.421875 -1.273438 1.140625 -1.828125 C 0.859375 -2.390625 0.71875 -3.066406 0.71875 -3.859375 C 0.71875 -4.648438 0.851562 -5.335938 1.125 -5.921875 C 1.40625 -6.503906 1.789062 -6.953125 2.28125 -7.265625 C 2.769531 -7.585938 3.335938 -7.75 3.984375 -7.75 C 4.484375 -7.75 4.878906 -7.664062 5.171875 -7.5 C 5.460938 -7.34375 5.6875 -7.160156 5.84375 -6.953125 C 6.007812 -6.742188 6.132812 -6.570312 6.21875 -6.4375 L 6.34375 -6.4375 L 6.34375 -7.65625 L 7.46875 -7.65625 L 7.46875 0.21875 C 7.46875 0.875 7.316406 1.410156 7.015625 1.828125 C 6.722656 2.242188 6.328125 2.546875 5.828125 2.734375 C 5.328125 2.929688 4.773438 3.03125 4.171875 3.03125 Z M 4.125 -1.171875 C 4.832031 -1.171875 5.375 -1.410156 5.75 -1.890625 C 6.125 -2.367188 6.3125 -3.035156 6.3125 -3.890625 C 6.3125 -4.710938 6.125 -5.382812 5.75 -5.90625 C 5.382812 -6.4375 4.84375 -6.703125 4.125 -6.703125 C 3.625 -6.703125 3.207031 -6.570312 2.875 -6.3125 C 2.550781 -6.0625 2.304688 -5.722656 2.140625 -5.296875 C 1.972656 -4.867188 1.890625 -4.398438 1.890625 -3.890625 C 1.890625 -3.085938 2.078125 -2.429688 2.453125 -1.921875 C 2.828125 -1.421875 3.382812 -1.171875 4.125 -1.171875 Z M 4.125 -1.171875 "/></g></g></g><g fill="#07060e" fill-opacity="1"><g transform="translate(103.490703, 69.392631)"><g/></g></g><g fill="#07060e" fill-opacity="1"><g transform="translate(107.854874, 69.392631)"><g><path d="M 3.96875 0.15625 C 3.332031 0.15625 2.769531 -0.00390625 2.28125 -0.328125 C 1.789062 -0.648438 1.40625 -1.109375 1.125 -1.703125 C 0.851562 -2.296875 0.71875 -3 0.71875 -3.8125 C 0.71875 -4.613281 0.851562 -5.304688 1.125 -5.890625 C 1.40625 -6.484375 1.789062 -6.941406 2.28125 -7.265625 C 2.769531 -7.585938 3.335938 -7.75 3.984375 -7.75 C 4.484375 -7.75 4.878906 -7.664062 5.171875 -7.5 C 5.460938 -7.34375 5.679688 -7.160156 5.828125 -6.953125 C 5.984375 -6.742188 6.109375 -6.570312 6.203125 -6.4375 L 6.296875 -6.4375 L 6.296875 -10.203125 L 7.46875 -10.203125 L 7.46875 0 L 6.34375 0 L 6.34375 -1.171875 L 6.203125 -1.171875 C 6.109375 -1.035156 5.984375 -0.859375 5.828125 -0.640625 C 5.671875 -0.429688 5.441406 -0.242188 5.140625 -0.078125 C 4.847656 0.078125 4.457031 0.15625 3.96875 0.15625 Z M 4.125 -0.890625 C 4.832031 -0.890625 5.375 -1.160156 5.75 -1.703125 C 6.125 -2.253906 6.3125 -2.960938 6.3125 -3.828125 C 6.3125 -4.679688 6.125 -5.375 5.75 -5.90625 C 5.382812 -6.4375 4.84375 -6.703125 4.125 -6.703125 C 3.625 -6.703125 3.207031 -6.570312 2.875 -6.3125 C 2.550781 -6.0625 2.304688 -5.71875 2.140625 -5.28125 C 1.972656 -4.851562 1.890625 -4.367188 1.890625 -3.828125 C 1.890625 -3.285156 1.972656 -2.789062 2.140625 -2.34375 C 2.304688 -1.894531 2.554688 -1.539062 2.890625 -1.28125 C 3.222656 -1.019531 3.632812 -0.890625 4.125 -0.890625 Z M 4.125 -0.890625 "/></g></g></g><g fill="#07060e" fill-opacity="1"><g transform="translate(116.978715, 69.392631)"><g><path d="M 5.90625 -3.125 L 5.90625 -7.65625 L 7.078125 -7.65625 L 7.078125 0 L 5.90625 0 L 5.90625 -1.296875 L 5.8125 -1.296875 C 5.632812 -0.910156 5.359375 -0.582031 4.984375 -0.3125 C 4.609375 -0.0390625 4.128906 0.09375 3.546875 0.09375 C 2.828125 0.09375 2.234375 -0.140625 1.765625 -0.609375 C 1.304688 -1.085938 1.078125 -1.816406 1.078125 -2.796875 L 1.078125 -7.65625 L 2.25 -7.65625 L 2.25 -2.875 C 2.25 -2.3125 2.40625 -1.863281 2.71875 -1.53125 C 3.03125 -1.195312 3.429688 -1.03125 3.921875 -1.03125 C 4.210938 -1.03125 4.507812 -1.101562 4.8125 -1.25 C 5.125 -1.40625 5.382812 -1.632812 5.59375 -1.9375 C 5.800781 -2.25 5.90625 -2.644531 5.90625 -3.125 Z M 4.09375 2.53125 C 3.863281 2.53125 3.664062 2.453125 3.5 2.296875 C 3.34375 2.140625 3.265625 1.953125 3.265625 1.734375 C 3.265625 1.503906 3.34375 1.3125 3.5 1.15625 C 3.664062 1 3.863281 0.921875 4.09375 0.921875 C 4.320312 0.921875 4.519531 1 4.6875 1.15625 C 4.851562 1.3125 4.9375 1.503906 4.9375 1.734375 C 4.9375 1.953125 4.851562 2.140625 4.6875 2.296875 C 4.519531 2.453125 4.320312 2.53125 4.09375 2.53125 Z M 4.09375 2.53125 "/></g></g></g><g fill="#07060e" fill-opacity="1"><g transform="translate(125.544933, 69.392631)"><g><path d="M 2.25 -4.609375 L 2.25 0 L 1.078125 0 L 1.078125 -7.65625 L 2.21875 -7.65625 L 2.21875 -6.453125 L 2.3125 -6.453125 C 2.488281 -6.847656 2.757812 -7.160156 3.125 -7.390625 C 3.488281 -7.628906 3.960938 -7.75 4.546875 -7.75 C 5.316406 -7.75 5.941406 -7.507812 6.421875 -7.03125 C 6.898438 -6.5625 7.140625 -5.835938 7.140625 -4.859375 L 7.140625 0 L 5.953125 0 L 5.953125 -4.78125 C 5.953125 -5.382812 5.796875 -5.851562 5.484375 -6.1875 C 5.171875 -6.53125 4.742188 -6.703125 4.203125 -6.703125 C 3.640625 -6.703125 3.171875 -6.519531 2.796875 -6.15625 C 2.429688 -5.789062 2.25 -5.273438 2.25 -4.609375 Z M 2.25 -4.609375 "/></g></g></g><g fill="#07060e" fill-opacity="1"><g transform="translate(134.170908, 69.392631)"><g><path d="M 4.171875 3.03125 C 3.316406 3.03125 2.640625 2.875 2.140625 2.5625 C 1.640625 2.25 1.269531 1.894531 1.03125 1.5 L 1.96875 0.84375 C 2.070312 0.976562 2.207031 1.132812 2.375 1.3125 C 2.539062 1.5 2.765625 1.660156 3.046875 1.796875 C 3.328125 1.929688 3.703125 2 4.171875 2 C 4.785156 2 5.289062 1.847656 5.6875 1.546875 C 6.09375 1.242188 6.296875 0.773438 6.296875 0.140625 L 6.296875 -1.421875 L 6.203125 -1.421875 C 6.109375 -1.273438 5.984375 -1.097656 5.828125 -0.890625 C 5.671875 -0.691406 5.445312 -0.515625 5.15625 -0.359375 C 4.863281 -0.203125 4.46875 -0.125 3.96875 -0.125 C 3.351562 -0.125 2.796875 -0.269531 2.296875 -0.5625 C 1.804688 -0.851562 1.421875 -1.273438 1.140625 -1.828125 C 0.859375 -2.390625 0.71875 -3.066406 0.71875 -3.859375 C 0.71875 -4.648438 0.851562 -5.335938 1.125 -5.921875 C 1.40625 -6.503906 1.789062 -6.953125 2.28125 -7.265625 C 2.769531 -7.585938 3.335938 -7.75 3.984375 -7.75 C 4.484375 -7.75 4.878906 -7.664062 5.171875 -7.5 C 5.460938 -7.34375 5.6875 -7.160156 5.84375 -6.953125 C 6.007812 -6.742188 6.132812 -6.570312 6.21875 -6.4375 L 6.34375 -6.4375 L 6.34375 -7.65625 L 7.46875 -7.65625 L 7.46875 0.21875 C 7.46875 0.875 7.316406 1.410156 7.015625 1.828125 C 6.722656 2.242188 6.328125 2.546875 5.828125 2.734375 C 5.328125 2.929688 4.773438 3.03125 4.171875 3.03125 Z M 4.125 -1.171875 C 4.832031 -1.171875 5.375 -1.410156 5.75 -1.890625 C 6.125 -2.367188 6.3125 -3.035156 6.3125 -3.890625 C 6.3125 -4.710938 6.125 -5.382812 5.75 -5.90625 C 5.382812 -6.4375 4.84375 -6.703125 4.125 -6.703125 C 3.625 -6.703125 3.207031 -6.570312 2.875 -6.3125 C 2.550781 -6.0625 2.304688 -5.722656 2.140625 -5.296875 C 1.972656 -4.867188 1.890625 -4.398438 1.890625 -3.890625 C 1.890625 -3.085938 2.078125 -2.429688 2.453125 -1.921875 C 2.828125 -1.421875 3.382812 -1.171875 4.125 -1.171875 Z M 4.125 -1.171875 "/></g></g></g><g fill="#07060e" fill-opacity="1"><g transform="translate(143.135432, 69.392631)"><g/></g></g><g fill="#07060e" fill-opacity="1"><g transform="translate(147.499606, 69.392631)"><g><path d="M 3.96875 0.15625 C 3.332031 0.15625 2.769531 -0.00390625 2.28125 -0.328125 C 1.789062 -0.648438 1.40625 -1.109375 1.125 -1.703125 C 0.851562 -2.296875 0.71875 -3 0.71875 -3.8125 C 0.71875 -4.613281 0.851562 -5.304688 1.125 -5.890625 C 1.40625 -6.484375 1.789062 -6.941406 2.28125 -7.265625 C 2.769531 -7.585938 3.335938 -7.75 3.984375 -7.75 C 4.484375 -7.75 4.878906 -7.664062 5.171875 -7.5 C 5.460938 -7.34375 5.679688 -7.160156 5.828125 -6.953125 C 5.984375 -6.742188 6.109375 -6.570312 6.203125 -6.4375 L 6.296875 -6.4375 L 6.296875 -10.203125 L 7.46875 -10.203125 L 7.46875 0 L 6.34375 0 L 6.34375 -1.171875 L 6.203125 -1.171875 C 6.109375 -1.035156 5.984375 -0.859375 5.828125 -0.640625 C 5.671875 -0.429688 5.441406 -0.242188 5.140625 -0.078125 C 4.847656 0.078125 4.457031 0.15625 3.96875 0.15625 Z M 4.125 -0.890625 C 4.832031 -0.890625 5.375 -1.160156 5.75 -1.703125 C 6.125 -2.253906 6.3125 -2.960938 6.3125 -3.828125 C 6.3125 -4.679688 6.125 -5.375 5.75 -5.90625 C 5.382812 -6.4375 4.84375 -6.703125 4.125 -6.703125 C 3.625 -6.703125 3.207031 -6.570312 2.875 -6.3125 C 2.550781 -6.0625 2.304688 -5.71875 2.140625 -5.28125 C 1.972656 -4.851562 1.890625 -4.367188 1.890625 -3.828125 C 1.890625 -3.285156 1.972656 -2.789062 2.140625 -2.34375 C 2.304688 -1.894531 2.554688 -1.539062 2.890625 -1.28125 C 3.222656 -1.019531 3.632812 -0.890625 4.125 -0.890625 Z M 4.1875 -8.3125 L 4.1875 -9.234375 L 8.578125 -9.234375 L 8.578125 -8.3125 Z M 4.1875 -8.3125 "/></g></g></g><g fill="#07060e" fill-opacity="1"><g transform="translate(156.62345, 69.392631)"><g><path d="M 4.1875 0.15625 C 3.5 0.15625 2.894531 -0.00390625 2.375 -0.328125 C 1.851562 -0.660156 1.445312 -1.117188 1.15625 -1.703125 C 0.863281 -2.296875 0.71875 -2.988281 0.71875 -3.78125 C 0.71875 -4.582031 0.863281 -5.28125 1.15625 -5.875 C 1.445312 -6.46875 1.851562 -6.925781 2.375 -7.25 C 2.894531 -7.582031 3.5 -7.75 4.1875 -7.75 C 4.875 -7.75 5.476562 -7.582031 6 -7.25 C 6.519531 -6.925781 6.925781 -6.46875 7.21875 -5.875 C 7.507812 -5.28125 7.65625 -4.582031 7.65625 -3.78125 C 7.65625 -2.988281 7.507812 -2.296875 7.21875 -1.703125 C 6.925781 -1.117188 6.519531 -0.660156 6 -0.328125 C 5.476562 -0.00390625 4.875 0.15625 4.1875 0.15625 Z M 4.1875 -0.890625 C 4.707031 -0.890625 5.132812 -1.023438 5.46875 -1.296875 C 5.8125 -1.566406 6.066406 -1.921875 6.234375 -2.359375 C 6.398438 -2.796875 6.484375 -3.269531 6.484375 -3.78125 C 6.484375 -4.289062 6.398438 -4.765625 6.234375 -5.203125 C 6.066406 -5.648438 5.8125 -6.007812 5.46875 -6.28125 C 5.132812 -6.5625 4.707031 -6.703125 4.1875 -6.703125 C 3.65625 -6.703125 3.21875 -6.5625 2.875 -6.28125 C 2.539062 -6.007812 2.289062 -5.648438 2.125 -5.203125 C 1.96875 -4.765625 1.890625 -4.289062 1.890625 -3.78125 C 1.890625 -3.269531 1.96875 -2.796875 2.125 -2.359375 C 2.289062 -1.921875 2.539062 -1.566406 2.875 -1.296875 C 3.21875 -1.023438 3.65625 -0.890625 4.1875 -0.890625 Z M 4.1875 2.53125 C 3.957031 2.53125 3.757812 2.453125 3.59375 2.296875 C 3.4375 2.140625 3.359375 1.953125 3.359375 1.734375 C 3.359375 1.503906 3.4375 1.3125 3.59375 1.15625 C 3.757812 1 3.957031 0.921875 4.1875 0.921875 C 4.414062 0.921875 4.613281 1 4.78125 1.15625 C 4.945312 1.3125 5.03125 1.503906 5.03125 1.734375 C 5.03125 1.953125 4.945312 2.140625 4.78125 2.296875 C 4.613281 2.453125 4.414062 2.53125 4.1875 2.53125 Z M 4.1875 2.53125 "/></g></g></g><g fill="#07060e" fill-opacity="1"><g transform="translate(165.408745, 69.392631)"><g><path d="M 4.1875 0.15625 C 3.46875 0.15625 2.847656 -0.0078125 2.328125 -0.34375 C 1.804688 -0.6875 1.40625 -1.15625 1.125 -1.75 C 0.851562 -2.34375 0.71875 -3.019531 0.71875 -3.78125 C 0.71875 -4.5625 0.859375 -5.25 1.140625 -5.84375 C 1.429688 -6.4375 1.832031 -6.898438 2.34375 -7.234375 C 2.863281 -7.578125 3.472656 -7.75 4.171875 -7.75 C 4.703125 -7.75 5.179688 -7.648438 5.609375 -7.453125 C 6.046875 -7.253906 6.398438 -6.972656 6.671875 -6.609375 C 6.953125 -6.253906 7.125 -5.835938 7.1875 -5.359375 L 6.015625 -5.359375 C 5.929688 -5.710938 5.734375 -6.023438 5.421875 -6.296875 C 5.117188 -6.566406 4.707031 -6.703125 4.1875 -6.703125 C 3.5 -6.703125 2.941406 -6.4375 2.515625 -5.90625 C 2.097656 -5.382812 1.890625 -4.691406 1.890625 -3.828125 C 1.890625 -2.941406 2.097656 -2.226562 2.515625 -1.6875 C 2.929688 -1.15625 3.488281 -0.890625 4.1875 -0.890625 C 4.644531 -0.890625 5.035156 -1.007812 5.359375 -1.25 C 5.691406 -1.488281 5.910156 -1.816406 6.015625 -2.234375 L 7.1875 -2.234375 C 7.125 -1.773438 6.960938 -1.363281 6.703125 -1 C 6.441406 -0.644531 6.097656 -0.363281 5.671875 -0.15625 C 5.242188 0.0507812 4.75 0.15625 4.1875 0.15625 Z M 4.1875 0.15625 "/></g></g></g><g fill="#07060e" fill-opacity="1"><g transform="translate(173.656321, 69.392631)"><g/></g></g><g fill="#07060e" fill-opacity="1"><g transform="translate(178.020489, 69.392631)"><g><path d="M 4.40625 -7.65625 L 4.40625 -6.65625 L 2.765625 -6.65625 L 2.765625 -2.1875 C 2.765625 -1.851562 2.8125 -1.601562 2.90625 -1.4375 C 3.007812 -1.28125 3.140625 -1.171875 3.296875 -1.109375 C 3.453125 -1.054688 3.613281 -1.03125 3.78125 -1.03125 C 3.914062 -1.03125 4.023438 -1.035156 4.109375 -1.046875 C 4.191406 -1.066406 4.257812 -1.082031 4.3125 -1.09375 L 4.546875 -0.046875 C 4.460938 -0.015625 4.347656 0.015625 4.203125 0.046875 C 4.066406 0.078125 3.890625 0.09375 3.671875 0.09375 C 3.335938 0.09375 3.007812 0.0234375 2.6875 -0.109375 C 2.375 -0.253906 2.113281 -0.472656 1.90625 -0.765625 C 1.695312 -1.054688 1.59375 -1.425781 1.59375 -1.875 L 1.59375 -6.65625 L 0.4375 -6.65625 L 0.4375 -7.65625 L 1.59375 -7.65625 L 1.59375 -9.484375 L 2.765625 -9.484375 L 2.765625 -7.65625 Z M 4.40625 -7.65625 "/></g></g></g><g fill="#07060e" fill-opacity="1"><g transform="translate(183.539725, 69.392631)"><g><path d="M 3.328125 0.171875 C 2.835938 0.171875 2.394531 0.0820312 2 -0.09375 C 1.613281 -0.28125 1.300781 -0.546875 1.0625 -0.890625 C 0.832031 -1.242188 0.71875 -1.671875 0.71875 -2.171875 C 0.71875 -2.609375 0.800781 -2.960938 0.96875 -3.234375 C 1.144531 -3.515625 1.378906 -3.734375 1.671875 -3.890625 C 1.960938 -4.046875 2.28125 -4.160156 2.625 -4.234375 C 2.976562 -4.316406 3.332031 -4.378906 3.6875 -4.421875 C 4.15625 -4.484375 4.53125 -4.53125 4.8125 -4.5625 C 5.101562 -4.59375 5.316406 -4.644531 5.453125 -4.71875 C 5.585938 -4.800781 5.65625 -4.9375 5.65625 -5.125 L 5.65625 -5.15625 C 5.65625 -5.65625 5.519531 -6.039062 5.25 -6.3125 C 4.988281 -6.582031 4.585938 -6.71875 4.046875 -6.71875 C 3.484375 -6.71875 3.039062 -6.59375 2.71875 -6.34375 C 2.40625 -6.101562 2.179688 -5.84375 2.046875 -5.5625 L 0.9375 -5.953125 C 1.132812 -6.421875 1.398438 -6.785156 1.734375 -7.046875 C 2.066406 -7.304688 2.429688 -7.488281 2.828125 -7.59375 C 3.222656 -7.695312 3.613281 -7.75 4 -7.75 C 4.25 -7.75 4.535156 -7.71875 4.859375 -7.65625 C 5.179688 -7.601562 5.488281 -7.488281 5.78125 -7.3125 C 6.082031 -7.132812 6.332031 -6.863281 6.53125 -6.5 C 6.738281 -6.132812 6.84375 -5.648438 6.84375 -5.046875 L 6.84375 0 L 5.65625 0 L 5.65625 -1.03125 L 5.59375 -1.03125 C 5.519531 -0.863281 5.390625 -0.6875 5.203125 -0.5 C 5.015625 -0.3125 4.765625 -0.148438 4.453125 -0.015625 C 4.148438 0.109375 3.773438 0.171875 3.328125 0.171875 Z M 3.515625 -0.875 C 3.972656 -0.875 4.363281 -0.960938 4.6875 -1.140625 C 5.007812 -1.328125 5.25 -1.566406 5.40625 -1.859375 C 5.570312 -2.148438 5.65625 -2.453125 5.65625 -2.765625 L 5.65625 -3.84375 C 5.601562 -3.78125 5.492188 -3.722656 5.328125 -3.671875 C 5.160156 -3.628906 4.96875 -3.59375 4.75 -3.5625 C 4.53125 -3.53125 4.316406 -3.5 4.109375 -3.46875 C 3.910156 -3.445312 3.75 -3.425781 3.625 -3.40625 C 3.320312 -3.363281 3.035156 -3.296875 2.765625 -3.203125 C 2.503906 -3.117188 2.289062 -2.988281 2.125 -2.8125 C 1.96875 -2.644531 1.890625 -2.410156 1.890625 -2.109375 C 1.890625 -1.703125 2.039062 -1.394531 2.34375 -1.1875 C 2.65625 -0.976562 3.046875 -0.875 3.515625 -0.875 Z M 4.625 -8.6875 L 3.59375 -8.6875 L 2.03125 -11 L 3.40625 -11 Z M 4.625 -8.6875 "/></g></g></g><g fill="#07060e" fill-opacity="1"><g transform="translate(191.866967, 69.392631)"><g><path d="M 1.078125 0 L 1.078125 -7.65625 L 2.25 -7.65625 L 2.25 0 Z M 1.671875 -8.921875 C 1.441406 -8.921875 1.242188 -9 1.078125 -9.15625 C 0.921875 -9.3125 0.84375 -9.5 0.84375 -9.71875 C 0.84375 -9.945312 0.921875 -10.140625 1.078125 -10.296875 C 1.242188 -10.453125 1.441406 -10.53125 1.671875 -10.53125 C 1.898438 -10.53125 2.097656 -10.453125 2.265625 -10.296875 C 2.429688 -10.140625 2.515625 -9.945312 2.515625 -9.71875 C 2.515625 -9.5 2.429688 -9.3125 2.265625 -9.15625 C 2.097656 -9 1.898438 -8.921875 1.671875 -8.921875 Z M 1.671875 -8.921875 "/></g></g></g><g fill="#07060e" fill-opacity="1"><g transform="translate(195.613779, 69.392631)"><g/></g></g><g fill="#07060e" fill-opacity="1"><g transform="translate(199.977947, 69.392631)"><g><path d="M 2.25 -10.203125 L 2.25 0 L 1.078125 0 L 1.078125 -10.203125 Z M 2.25 -10.203125 "/></g></g></g><g fill="#07060e" fill-opacity="1"><g transform="translate(203.72476, 69.392631)"><g><path d="M 1.078125 0 L 1.078125 -7.65625 L 2.25 -7.65625 L 2.25 0 Z M 1.671875 -8.921875 C 1.441406 -8.921875 1.242188 -9 1.078125 -9.15625 C 0.921875 -9.3125 0.84375 -9.5 0.84375 -9.71875 C 0.84375 -9.945312 0.921875 -10.140625 1.078125 -10.296875 C 1.242188 -10.453125 1.441406 -10.53125 1.671875 -10.53125 C 1.898438 -10.53125 2.097656 -10.453125 2.265625 -10.296875 C 2.429688 -10.140625 2.515625 -9.945312 2.515625 -9.71875 C 2.515625 -9.5 2.429688 -9.3125 2.265625 -9.15625 C 2.097656 -9 1.898438 -8.921875 1.671875 -8.921875 Z M 1.671875 -8.921875 "/></g></g></g><g fill="#07060e" fill-opacity="1"><g transform="translate(207.471573, 69.392631)"><g><path d="M 4.28125 0.15625 C 3.539062 0.15625 2.90625 -0.00390625 2.375 -0.328125 C 1.84375 -0.660156 1.429688 -1.117188 1.140625 -1.703125 C 0.859375 -2.296875 0.71875 -2.984375 0.71875 -3.765625 C 0.71875 -4.546875 0.859375 -5.234375 1.140625 -5.828125 C 1.429688 -6.429688 1.832031 -6.898438 2.34375 -7.234375 C 2.863281 -7.578125 3.472656 -7.75 4.171875 -7.75 C 4.566406 -7.75 4.957031 -7.679688 5.34375 -7.546875 C 5.726562 -7.421875 6.082031 -7.207031 6.40625 -6.90625 C 6.726562 -6.613281 6.984375 -6.222656 7.171875 -5.734375 C 7.359375 -5.242188 7.453125 -4.640625 7.453125 -3.921875 L 7.453125 -3.421875 L 1.890625 -3.421875 C 1.921875 -2.609375 2.15625 -1.984375 2.59375 -1.546875 C 3.03125 -1.109375 3.59375 -0.890625 4.28125 -0.890625 C 4.75 -0.890625 5.144531 -0.988281 5.46875 -1.1875 C 5.800781 -1.394531 6.046875 -1.695312 6.203125 -2.09375 L 7.328125 -1.78125 C 7.148438 -1.195312 6.789062 -0.726562 6.25 -0.375 C 5.71875 -0.0195312 5.0625 0.15625 4.28125 0.15625 Z M 1.890625 -4.4375 L 6.265625 -4.4375 C 6.265625 -5.09375 6.070312 -5.632812 5.6875 -6.0625 C 5.3125 -6.488281 4.804688 -6.703125 4.171875 -6.703125 C 3.722656 -6.703125 3.332031 -6.59375 3 -6.375 C 2.664062 -6.164062 2.40625 -5.890625 2.21875 -5.546875 C 2.03125 -5.203125 1.921875 -4.832031 1.890625 -4.4375 Z M 3.078125 -8.578125 L 4.109375 -9.96875 L 5.140625 -8.578125 L 6.265625 -8.578125 L 6.265625 -8.65625 L 4.65625 -10.734375 L 3.578125 -10.734375 L 1.953125 -8.65625 L 1.953125 -8.578125 Z M 4.109375 2.53125 C 3.878906 2.53125 3.679688 2.453125 3.515625 2.296875 C 3.359375 2.140625 3.28125 1.953125 3.28125 1.734375 C 3.28125 1.503906 3.359375 1.3125 3.515625 1.15625 C 3.679688 1 3.878906 0.921875 4.109375 0.921875 C 4.335938 0.921875 4.535156 1 4.703125 1.15625 C 4.867188 1.3125 4.953125 1.503906 4.953125 1.734375 C 4.953125 1.953125 4.867188 2.140625 4.703125 2.296875 C 4.535156 2.453125 4.335938 2.53125 4.109375 2.53125 Z M 4.109375 2.53125 "/></g></g></g><g fill="#07060e" fill-opacity="1"><g transform="translate(216.057709, 69.392631)"><g><path d="M 5.90625 -3.125 L 5.90625 -7.65625 L 7.078125 -7.65625 L 7.078125 0 L 5.90625 0 L 5.90625 -1.296875 L 5.8125 -1.296875 C 5.632812 -0.910156 5.359375 -0.582031 4.984375 -0.3125 C 4.609375 -0.0390625 4.128906 0.09375 3.546875 0.09375 C 2.828125 0.09375 2.234375 -0.140625 1.765625 -0.609375 C 1.304688 -1.085938 1.078125 -1.816406 1.078125 -2.796875 L 1.078125 -7.65625 L 2.25 -7.65625 L 2.25 -2.875 C 2.25 -2.3125 2.40625 -1.863281 2.71875 -1.53125 C 3.03125 -1.195312 3.429688 -1.03125 3.921875 -1.03125 C 4.210938 -1.03125 4.507812 -1.101562 4.8125 -1.25 C 5.125 -1.40625 5.382812 -1.632812 5.59375 -1.9375 C 5.800781 -2.25 5.90625 -2.644531 5.90625 -3.125 Z M 5.90625 -3.125 "/></g></g></g><g fill="#07060e" fill-opacity="1"><g transform="translate(224.623924, 69.392631)"><g/></g></g><g fill="#07060e" fill-opacity="1"><g transform="translate(228.988092, 69.392631)"><g><path d="M 4.40625 -7.65625 L 4.40625 -6.65625 L 2.765625 -6.65625 L 2.765625 -2.1875 C 2.765625 -1.851562 2.8125 -1.601562 2.90625 -1.4375 C 3.007812 -1.28125 3.140625 -1.171875 3.296875 -1.109375 C 3.453125 -1.054688 3.613281 -1.03125 3.78125 -1.03125 C 3.914062 -1.03125 4.023438 -1.035156 4.109375 -1.046875 C 4.191406 -1.066406 4.257812 -1.082031 4.3125 -1.09375 L 4.546875 -0.046875 C 4.460938 -0.015625 4.347656 0.015625 4.203125 0.046875 C 4.066406 0.078125 3.890625 0.09375 3.671875 0.09375 C 3.335938 0.09375 3.007812 0.0234375 2.6875 -0.109375 C 2.375 -0.253906 2.113281 -0.472656 1.90625 -0.765625 C 1.695312 -1.054688 1.59375 -1.425781 1.59375 -1.875 L 1.59375 -6.65625 L 0.4375 -6.65625 L 0.4375 -7.65625 L 1.59375 -7.65625 L 1.59375 -9.484375 L 2.765625 -9.484375 L 2.765625 -7.65625 Z M 4.40625 -7.65625 "/></g></g></g><g fill="#07060e" fill-opacity="1"><g transform="translate(234.507329, 69.392631)"><g><path d="M 1.078125 0 L 1.078125 -7.65625 L 2.21875 -7.65625 L 2.21875 -6.5 L 2.296875 -6.5 C 2.429688 -6.875 2.679688 -7.175781 3.046875 -7.40625 C 3.410156 -7.644531 3.820312 -7.765625 4.28125 -7.765625 C 4.5 -7.765625 4.6875 -7.738281 4.84375 -7.6875 C 5 -7.644531 5.140625 -7.582031 5.265625 -7.5 L 4.859375 -6.5 C 4.773438 -6.539062 4.675781 -6.570312 4.5625 -6.59375 C 4.457031 -6.625 4.332031 -6.640625 4.1875 -6.640625 C 3.625 -6.640625 3.160156 -6.46875 2.796875 -6.125 C 2.429688 -5.78125 2.25 -5.351562 2.25 -4.84375 L 2.25 0 Z M 1.078125 0 "/></g></g></g><g fill="#07060e" fill-opacity="1"><g transform="translate(240.305371, 69.392631)"><g><path d="M 7.96875 -8 L 9.015625 -8 C 9.015625 -7.289062 8.878906 -6.742188 8.609375 -6.359375 C 8.335938 -5.984375 7.828125 -5.765625 7.078125 -5.703125 L 7.078125 0 L 5.90625 0 L 5.90625 -1.296875 L 5.8125 -1.296875 C 5.632812 -0.910156 5.359375 -0.582031 4.984375 -0.3125 C 4.609375 -0.0390625 4.128906 0.09375 3.546875 0.09375 C 2.828125 0.09375 2.234375 -0.140625 1.765625 -0.609375 C 1.304688 -1.085938 1.078125 -1.816406 1.078125 -2.796875 L 1.078125 -7.65625 L 2.25 -7.65625 L 2.25 -2.875 C 2.25 -2.3125 2.40625 -1.863281 2.71875 -1.53125 C 3.03125 -1.195312 3.429688 -1.03125 3.921875 -1.03125 C 4.210938 -1.03125 4.507812 -1.101562 4.8125 -1.25 C 5.125 -1.40625 5.382812 -1.632812 5.59375 -1.9375 C 5.800781 -2.25 5.90625 -2.644531 5.90625 -3.125 L 5.90625 -7.65625 L 7.078125 -7.65625 L 7.078125 -6.53125 C 7.367188 -6.5625 7.578125 -6.628906 7.703125 -6.734375 C 7.828125 -6.847656 7.898438 -7.007812 7.921875 -7.21875 C 7.953125 -7.425781 7.96875 -7.6875 7.96875 -8 Z M 4.09375 2.53125 C 3.863281 2.53125 3.664062 2.453125 3.5 2.296875 C 3.34375 2.140625 3.265625 1.953125 3.265625 1.734375 C 3.265625 1.503906 3.34375 1.3125 3.5 1.15625 C 3.664062 1 3.863281 0.921875 4.09375 0.921875 C 4.320312 0.921875 4.519531 1 4.6875 1.15625 C 4.851562 1.3125 4.9375 1.503906 4.9375 1.734375 C 4.9375 1.953125 4.851562 2.140625 4.6875 2.296875 C 4.519531 2.453125 4.320312 2.53125 4.09375 2.53125 Z M 4.09375 2.53125 "/></g></g></g><g fill="#07060e" fill-opacity="1"><g transform="translate(249.44912, 69.392631)"><g><path d="M 4.1875 0.15625 C 3.46875 0.15625 2.847656 -0.0078125 2.328125 -0.34375 C 1.804688 -0.6875 1.40625 -1.15625 1.125 -1.75 C 0.851562 -2.34375 0.71875 -3.019531 0.71875 -3.78125 C 0.71875 -4.5625 0.859375 -5.25 1.140625 -5.84375 C 1.429688 -6.4375 1.832031 -6.898438 2.34375 -7.234375 C 2.863281 -7.578125 3.472656 -7.75 4.171875 -7.75 C 4.703125 -7.75 5.179688 -7.648438 5.609375 -7.453125 C 6.046875 -7.253906 6.398438 -6.972656 6.671875 -6.609375 C 6.953125 -6.253906 7.125 -5.835938 7.1875 -5.359375 L 6.015625 -5.359375 C 5.929688 -5.710938 5.734375 -6.023438 5.421875 -6.296875 C 5.117188 -6.566406 4.707031 -6.703125 4.1875 -6.703125 C 3.5 -6.703125 2.941406 -6.4375 2.515625 -5.90625 C 2.097656 -5.382812 1.890625 -4.691406 1.890625 -3.828125 C 1.890625 -2.941406 2.097656 -2.226562 2.515625 -1.6875 C 2.929688 -1.15625 3.488281 -0.890625 4.1875 -0.890625 C 4.644531 -0.890625 5.035156 -1.007812 5.359375 -1.25 C 5.691406 -1.488281 5.910156 -1.816406 6.015625 -2.234375 L 7.1875 -2.234375 C 7.125 -1.773438 6.960938 -1.363281 6.703125 -1 C 6.441406 -0.644531 6.097656 -0.363281 5.671875 -0.15625 C 5.242188 0.0507812 4.75 0.15625 4.1875 0.15625 Z M 4.1875 0.15625 "/></g></g></g><g fill="#07060e" fill-opacity="1"><g transform="translate(257.696696, 69.392631)"><g/></g></g><g fill="#07060e" fill-opacity="1"><g transform="translate(262.060864, 69.392631)"><g><path d="M 4.40625 -7.65625 L 4.40625 -6.65625 L 2.765625 -6.65625 L 2.765625 -2.1875 C 2.765625 -1.851562 2.8125 -1.601562 2.90625 -1.4375 C 3.007812 -1.28125 3.140625 -1.171875 3.296875 -1.109375 C 3.453125 -1.054688 3.613281 -1.03125 3.78125 -1.03125 C 3.914062 -1.03125 4.023438 -1.035156 4.109375 -1.046875 C 4.191406 -1.066406 4.257812 -1.082031 4.3125 -1.09375 L 4.546875 -0.046875 C 4.460938 -0.015625 4.347656 0.015625 4.203125 0.046875 C 4.066406 0.078125 3.890625 0.09375 3.671875 0.09375 C 3.335938 0.09375 3.007812 0.0234375 2.6875 -0.109375 C 2.375 -0.253906 2.113281 -0.472656 1.90625 -0.765625 C 1.695312 -1.054688 1.59375 -1.425781 1.59375 -1.875 L 1.59375 -6.65625 L 0.4375 -6.65625 L 0.4375 -7.65625 L 1.59375 -7.65625 L 1.59375 -9.484375 L 2.765625 -9.484375 L 2.765625 -7.65625 Z M 4.40625 -7.65625 "/></g></g></g><g fill="#07060e" fill-opacity="1"><g transform="translate(267.580112, 69.392631)"><g><path d="M 5.90625 -3.125 L 5.90625 -7.65625 L 7.078125 -7.65625 L 7.078125 0 L 5.90625 0 L 5.90625 -1.296875 L 5.8125 -1.296875 C 5.632812 -0.910156 5.359375 -0.582031 4.984375 -0.3125 C 4.609375 -0.0390625 4.128906 0.09375 3.546875 0.09375 C 2.828125 0.09375 2.234375 -0.140625 1.765625 -0.609375 C 1.304688 -1.085938 1.078125 -1.816406 1.078125 -2.796875 L 1.078125 -7.65625 L 2.25 -7.65625 L 2.25 -2.875 C 2.25 -2.3125 2.40625 -1.863281 2.71875 -1.53125 C 3.03125 -1.195312 3.429688 -1.03125 3.921875 -1.03125 C 4.210938 -1.03125 4.507812 -1.101562 4.8125 -1.25 C 5.125 -1.40625 5.382812 -1.632812 5.59375 -1.9375 C 5.800781 -2.25 5.90625 -2.644531 5.90625 -3.125 Z M 5.90625 -3.125 "/></g></g></g><g fill="#07060e" fill-opacity="1"><g transform="translate(276.146338, 69.392631)"><g><path d="M 1.796875 2.96875 C 1.597656 2.96875 1.421875 2.953125 1.265625 2.921875 C 1.109375 2.890625 1 2.859375 0.9375 2.828125 L 1.234375 1.796875 C 1.660156 1.898438 2.015625 1.894531 2.296875 1.78125 C 2.585938 1.664062 2.835938 1.320312 3.046875 0.75 L 3.3125 0.046875 L 0.484375 -7.65625 L 1.75 -7.65625 L 3.859375 -1.546875 L 3.953125 -1.546875 L 6.0625 -7.65625 L 7.328125 -7.65625 L 4.046875 1.234375 C 3.609375 2.390625 2.859375 2.96875 1.796875 2.96875 Z M 1.796875 2.96875 "/></g></g></g><g fill="#07060e" fill-opacity="1"><g transform="translate(284.374015, 69.392631)"><g><path d="M 4.28125 0.15625 C 3.539062 0.15625 2.90625 -0.00390625 2.375 -0.328125 C 1.84375 -0.660156 1.429688 -1.117188 1.140625 -1.703125 C 0.859375 -2.296875 0.71875 -2.984375 0.71875 -3.765625 C 0.71875 -4.546875 0.859375 -5.234375 1.140625 -5.828125 C 1.429688 -6.429688 1.832031 -6.898438 2.34375 -7.234375 C 2.863281 -7.578125 3.472656 -7.75 4.171875 -7.75 C 4.566406 -7.75 4.957031 -7.679688 5.34375 -7.546875 C 5.726562 -7.421875 6.082031 -7.207031 6.40625 -6.90625 C 6.726562 -6.613281 6.984375 -6.222656 7.171875 -5.734375 C 7.359375 -5.242188 7.453125 -4.640625 7.453125 -3.921875 L 7.453125 -3.421875 L 1.890625 -3.421875 C 1.921875 -2.609375 2.15625 -1.984375 2.59375 -1.546875 C 3.03125 -1.109375 3.59375 -0.890625 4.28125 -0.890625 C 4.75 -0.890625 5.144531 -0.988281 5.46875 -1.1875 C 5.800781 -1.394531 6.046875 -1.695312 6.203125 -2.09375 L 7.328125 -1.78125 C 7.148438 -1.195312 6.789062 -0.726562 6.25 -0.375 C 5.71875 -0.0195312 5.0625 0.15625 4.28125 0.15625 Z M 1.890625 -4.4375 L 6.265625 -4.4375 C 6.265625 -5.09375 6.070312 -5.632812 5.6875 -6.0625 C 5.3125 -6.488281 4.804688 -6.703125 4.171875 -6.703125 C 3.722656 -6.703125 3.332031 -6.59375 3 -6.375 C 2.664062 -6.164062 2.40625 -5.890625 2.21875 -5.546875 C 2.03125 -5.203125 1.921875 -4.832031 1.890625 -4.4375 Z M 1.546875 -8.609375 L 3.578125 -10.421875 L 4.671875 -10.421875 L 6.703125 -8.609375 L 5.265625 -8.609375 L 4.125 -9.65625 L 3 -8.609375 Z M 6.171875 -9.828125 L 7.140625 -11.609375 L 8.59375 -11.609375 L 7.203125 -9.828125 Z M 6.171875 -9.828125 "/></g></g></g><g fill="#07060e" fill-opacity="1"><g transform="translate(292.960151, 69.392631)"><g><path d="M 2.25 -4.609375 L 2.25 0 L 1.078125 0 L 1.078125 -7.65625 L 2.21875 -7.65625 L 2.21875 -6.453125 L 2.3125 -6.453125 C 2.488281 -6.847656 2.757812 -7.160156 3.125 -7.390625 C 3.488281 -7.628906 3.960938 -7.75 4.546875 -7.75 C 5.316406 -7.75 5.941406 -7.507812 6.421875 -7.03125 C 6.898438 -6.5625 7.140625 -5.835938 7.140625 -4.859375 L 7.140625 0 L 5.953125 0 L 5.953125 -4.78125 C 5.953125 -5.382812 5.796875 -5.851562 5.484375 -6.1875 C 5.171875 -6.53125 4.742188 -6.703125 4.203125 -6.703125 C 3.640625 -6.703125 3.171875 -6.519531 2.796875 -6.15625 C 2.429688 -5.789062 2.25 -5.273438 2.25 -4.609375 Z M 2.25 -4.609375 "/></g></g></g><g clip-path="url(#21dc8a2558)"><g clip-path="url(#bd1220f1f0)"><path fill="#ffffff" d="M 2.03125 11.800781 L 65.722656 11.800781 L 65.722656 75.492188 L 2.03125 75.492188 Z M 2.03125 11.800781 " fill-opacity="1" fill-rule="nonzero"/></g></g><g clip-path="url(#eeaad3331c)"><g clip-path="url(#d2d507e2e8)"><path stroke-linecap="butt" transform="matrix(0.743755, 0, 0, 0.743755, 2.030648, 11.801677)" fill="none" stroke-linejoin="miter" d="M 42.658057 -0.00120402 C 19.097306 -0.00120402 0.000808763 19.095294 0.000808763 42.656044 C 0.000808763 66.216794 19.097306 85.313292 42.658057 85.313292 C 66.213555 85.313292 85.310053 66.216794 85.310053 42.656044 C 85.310053 19.095294 66.213555 -0.00120402 42.658057 -0.00120402 Z M 42.658057 -0.00120402 " stroke="#00adef" stroke-width="4" stroke-opacity="1" stroke-miterlimit="4"/></g></g><g clip-path="url(#f302a5249f)"><path fill="#00adef" d="M 22.496094 64.046875 L 29.046875 57.175781 C 31.398438 57.863281 33.636719 58.722656 35.753906 59.707031 L 34.566406 61.019531 C 40.734375 64.105469 45.675781 67.648438 49.632812 71.269531 C 50.738281 70.597656 51.804688 69.863281 52.816406 69.070312 C 46.867188 63.574219 34.992188 54.714844 20.085938 54.402344 L 25.984375 48.21875 C 28.421875 48.800781 30.742188 49.582031 32.945312 50.507812 L 32.160156 51.375 C 42.210938 56.40625 49.003906 62.640625 53.574219 68.460938 C 54.328125 67.832031 55.054688 67.171875 55.75 66.476562 C 49.582031 59.089844 38.101562 48.367188 22.253906 46.320312 L 48.09375 22.804688 C 48.09375 22.804688 54.773438 23.699219 61.476562 28.8125 C 56.109375 18.613281 45.425781 11.660156 33.121094 11.660156 C 15.429688 11.660156 1.085938 26.03125 1.085938 43.757812 C 1.085938 61.484375 15.429688 75.855469 33.121094 75.855469 C 38.515625 75.855469 43.59375 74.519531 48.054688 72.160156 C 41.664062 68.210938 31.933594 63.507812 22.496094 64.046875 " fill-opacity="1" fill-rule="nonzero"/></g></svg>